<mxfile host="app.diagrams.net" modified="2023-12-10T17:36:43.968Z" agent="Mozilla/5.0 (Macintosh; Intel Mac OS X 10_15_7) AppleWebKit/605.1.15 (KHTML, like Gecko) Version/17.0 Safari/605.1.15" etag="RAa2G4d5Ws67AK3vkzJq" version="22.1.7" type="device">
  <diagram name="Page-1" id="bw8bFnn0i8U5Ah-jCoRl">
    <mxGraphModel dx="874" dy="559" grid="0" gridSize="10" guides="1" tooltips="1" connect="1" arrows="1" fold="1" page="1" pageScale="1" pageWidth="1100" pageHeight="850" math="0" shadow="0">
      <root>
        <mxCell id="0" />
        <mxCell id="1" parent="0" />
        <mxCell id="194LpS0apMHIqjK_b7Wt-1" value="&lt;b&gt;&lt;font style=&quot;font-size: 22px;&quot;&gt;Diagrama Componentes&lt;/font&gt;&lt;/b&gt;" style="text;html=1;strokeColor=none;fillColor=none;align=left;verticalAlign=middle;whiteSpace=wrap;rounded=0;" vertex="1" parent="1">
          <mxGeometry x="50" y="60" width="460" height="30" as="geometry" />
        </mxCell>
        <mxCell id="194LpS0apMHIqjK_b7Wt-79" value="" style="group" vertex="1" connectable="0" parent="1">
          <mxGeometry x="674" y="137" width="180" height="403" as="geometry" />
        </mxCell>
        <mxCell id="194LpS0apMHIqjK_b7Wt-75" value="Servicio" style="verticalAlign=top;align=left;spacingTop=8;spacingLeft=2;spacingRight=12;shape=cube;size=10;direction=south;fontStyle=4;html=1;whiteSpace=wrap;" vertex="1" parent="194LpS0apMHIqjK_b7Wt-79">
          <mxGeometry width="180" height="318" as="geometry" />
        </mxCell>
        <mxCell id="194LpS0apMHIqjK_b7Wt-77" value="Validation Token" style="shape=module;align=left;spacingLeft=20;align=center;verticalAlign=top;whiteSpace=wrap;html=1;" vertex="1" parent="194LpS0apMHIqjK_b7Wt-79">
          <mxGeometry x="36" y="97" width="100" height="50" as="geometry" />
        </mxCell>
        <mxCell id="194LpS0apMHIqjK_b7Wt-78" value="Logica Negocio" style="shape=module;align=left;spacingLeft=20;align=center;verticalAlign=top;whiteSpace=wrap;html=1;" vertex="1" parent="194LpS0apMHIqjK_b7Wt-79">
          <mxGeometry x="36" y="155" width="100" height="50" as="geometry" />
        </mxCell>
        <mxCell id="194LpS0apMHIqjK_b7Wt-91" value="Persistencia Datos" style="shape=module;align=left;spacingLeft=20;align=center;verticalAlign=top;whiteSpace=wrap;html=1;" vertex="1" parent="194LpS0apMHIqjK_b7Wt-79">
          <mxGeometry x="36" y="213" width="100" height="50" as="geometry" />
        </mxCell>
        <mxCell id="194LpS0apMHIqjK_b7Wt-92" value="" style="group" vertex="1" connectable="0" parent="194LpS0apMHIqjK_b7Wt-79">
          <mxGeometry x="-1" y="353" width="180" height="67" as="geometry" />
        </mxCell>
        <mxCell id="194LpS0apMHIqjK_b7Wt-93" value="" style="ellipse;whiteSpace=wrap;html=1;align=center;aspect=fixed;fillColor=none;strokeColor=none;resizable=0;perimeter=centerPerimeter;rotatable=0;allowArrows=0;points=[];outlineConnect=1;" vertex="1" parent="194LpS0apMHIqjK_b7Wt-92">
          <mxGeometry x="85" y="6.909375" width="10" height="10" as="geometry" />
        </mxCell>
        <mxCell id="194LpS0apMHIqjK_b7Wt-94" value="Base de Datos" style="verticalAlign=top;align=left;spacingTop=8;spacingLeft=2;spacingRight=12;shape=cube;size=10;direction=south;fontStyle=4;html=1;whiteSpace=wrap;" vertex="1" parent="194LpS0apMHIqjK_b7Wt-92">
          <mxGeometry width="180" height="66.790625" as="geometry" />
        </mxCell>
        <mxCell id="194LpS0apMHIqjK_b7Wt-97" value="" style="ellipse;whiteSpace=wrap;html=1;align=center;aspect=fixed;fillColor=none;strokeColor=none;resizable=0;perimeter=centerPerimeter;rotatable=0;allowArrows=0;points=[];outlineConnect=1;" vertex="1" parent="194LpS0apMHIqjK_b7Wt-79">
          <mxGeometry x="56" y="117" width="10" height="10" as="geometry" />
        </mxCell>
        <mxCell id="194LpS0apMHIqjK_b7Wt-85" value="" style="group" vertex="1" connectable="0" parent="1">
          <mxGeometry x="62" y="146" width="180" height="320" as="geometry" />
        </mxCell>
        <mxCell id="194LpS0apMHIqjK_b7Wt-57" value="" style="ellipse;whiteSpace=wrap;html=1;align=center;aspect=fixed;fillColor=none;strokeColor=none;resizable=0;perimeter=centerPerimeter;rotatable=0;allowArrows=0;points=[];outlineConnect=1;" vertex="1" parent="194LpS0apMHIqjK_b7Wt-85">
          <mxGeometry x="85" y="33" width="10" height="10" as="geometry" />
        </mxCell>
        <mxCell id="194LpS0apMHIqjK_b7Wt-80" value="Cliente" style="verticalAlign=top;align=left;spacingTop=8;spacingLeft=2;spacingRight=12;shape=cube;size=10;direction=south;fontStyle=4;html=1;whiteSpace=wrap;" vertex="1" parent="194LpS0apMHIqjK_b7Wt-85">
          <mxGeometry width="180" height="319" as="geometry" />
        </mxCell>
        <mxCell id="194LpS0apMHIqjK_b7Wt-86" value="Controlador&lt;br&gt;" style="verticalAlign=top;align=left;spacingTop=8;spacingLeft=2;spacingRight=12;shape=cube;size=10;direction=south;fontStyle=4;html=1;whiteSpace=wrap;" vertex="1" parent="1">
          <mxGeometry x="363" y="146" width="180" height="318" as="geometry" />
        </mxCell>
        <mxCell id="194LpS0apMHIqjK_b7Wt-87" value="Api Gateway" style="shape=module;align=left;spacingLeft=20;align=center;verticalAlign=top;whiteSpace=wrap;html=1;" vertex="1" parent="1">
          <mxGeometry x="394" y="207" width="100" height="50" as="geometry" />
        </mxCell>
        <mxCell id="194LpS0apMHIqjK_b7Wt-88" value="" style="group" vertex="1" connectable="0" parent="1">
          <mxGeometry x="59" y="483" width="180" height="67" as="geometry" />
        </mxCell>
        <mxCell id="194LpS0apMHIqjK_b7Wt-89" value="" style="ellipse;whiteSpace=wrap;html=1;align=center;aspect=fixed;fillColor=none;strokeColor=none;resizable=0;perimeter=centerPerimeter;rotatable=0;allowArrows=0;points=[];outlineConnect=1;" vertex="1" parent="194LpS0apMHIqjK_b7Wt-88">
          <mxGeometry x="85" y="6.909375" width="10" height="10" as="geometry" />
        </mxCell>
        <mxCell id="194LpS0apMHIqjK_b7Wt-90" value="Seguridad" style="verticalAlign=top;align=left;spacingTop=8;spacingLeft=2;spacingRight=12;shape=cube;size=10;direction=south;fontStyle=4;html=1;whiteSpace=wrap;" vertex="1" parent="194LpS0apMHIqjK_b7Wt-88">
          <mxGeometry width="180" height="66.790625" as="geometry" />
        </mxCell>
        <mxCell id="194LpS0apMHIqjK_b7Wt-98" value="" style="rounded=0;orthogonalLoop=1;jettySize=auto;html=1;endArrow=halfCircle;endFill=0;endSize=6;strokeWidth=1;sketch=0;" edge="1" target="194LpS0apMHIqjK_b7Wt-100" parent="1" source="194LpS0apMHIqjK_b7Wt-87">
          <mxGeometry relative="1" as="geometry">
            <mxPoint x="319" y="236" as="sourcePoint" />
          </mxGeometry>
        </mxCell>
        <mxCell id="194LpS0apMHIqjK_b7Wt-99" value="" style="rounded=0;orthogonalLoop=1;jettySize=auto;html=1;endArrow=oval;endFill=0;sketch=0;sourcePerimeterSpacing=0;targetPerimeterSpacing=0;endSize=10;" edge="1" target="194LpS0apMHIqjK_b7Wt-100" parent="1" source="194LpS0apMHIqjK_b7Wt-80">
          <mxGeometry relative="1" as="geometry">
            <mxPoint x="279" y="236" as="sourcePoint" />
          </mxGeometry>
        </mxCell>
        <mxCell id="194LpS0apMHIqjK_b7Wt-100" value="" style="ellipse;whiteSpace=wrap;html=1;align=center;aspect=fixed;fillColor=none;strokeColor=none;resizable=0;perimeter=centerPerimeter;rotatable=0;allowArrows=0;points=[];outlineConnect=1;" vertex="1" parent="1">
          <mxGeometry x="294" y="231" width="10" height="10" as="geometry" />
        </mxCell>
        <mxCell id="194LpS0apMHIqjK_b7Wt-101" value="" style="rounded=0;orthogonalLoop=1;jettySize=auto;html=1;endArrow=halfCircle;endFill=0;endSize=6;strokeWidth=1;sketch=0;" edge="1" target="194LpS0apMHIqjK_b7Wt-103" parent="1" source="194LpS0apMHIqjK_b7Wt-75">
          <mxGeometry x="523" y="224" width="10" height="10" as="geometry">
            <mxPoint x="734" y="268" as="sourcePoint" />
          </mxGeometry>
        </mxCell>
        <mxCell id="194LpS0apMHIqjK_b7Wt-102" value="" style="rounded=0;orthogonalLoop=1;jettySize=auto;html=1;endArrow=oval;endFill=0;sketch=0;sourcePerimeterSpacing=0;targetPerimeterSpacing=0;endSize=10;" edge="1" target="194LpS0apMHIqjK_b7Wt-103" parent="1">
          <mxGeometry relative="1" as="geometry">
            <mxPoint x="493" y="229" as="sourcePoint" />
          </mxGeometry>
        </mxCell>
        <mxCell id="194LpS0apMHIqjK_b7Wt-103" value="" style="ellipse;whiteSpace=wrap;html=1;align=center;aspect=fixed;fillColor=none;strokeColor=none;resizable=0;perimeter=centerPerimeter;rotatable=0;allowArrows=0;points=[];outlineConnect=1;" vertex="1" parent="1">
          <mxGeometry x="589" y="225" width="10" height="10" as="geometry" />
        </mxCell>
      </root>
    </mxGraphModel>
  </diagram>
</mxfile>
